<?xml version="1.0" encoding="utf-8"?>
<svg viewBox="0 0 460 460" xmlns="http://www.w3.org/2000/svg">
  <path fill="#FFFFFF" opacity="1.000000" stroke="none" d=" M461.000000,90.000000 C461.000000,184.020889 461.000000,278.041779 460.641479,372.230957 C459.860931,373.062714 459.145630,373.690216 459.059174,374.394867 C455.889130,400.230469 444.525818,421.551819 424.368988,438.179474 C411.046326,449.169556 395.873627,455.944977 378.959625,459.069946 C378.213043,459.207855 377.649017,460.334106 377.000000,461.000000 C279.979095,461.000000 182.958206,461.000000 85.767792,460.649719 C85.106918,459.880066 84.664139,459.175446 84.117218,459.082275 C60.125977,454.996399 40.211620,443.950714 24.532087,425.126556 C12.437947,410.606903 5.570210,394.010498 2.929904,375.457825 C2.802855,374.565094 1.666396,373.815979 1.000000,373.000000 C1.000000,278.979095 1.000000,184.958206 1.358486,90.769058 C2.131100,90.102135 2.861319,89.634117 2.913080,89.100319 C4.173068,76.106361 8.420859,64.130661 14.665037,52.713787 C23.877148,35.870342 36.972694,22.946550 53.869846,14.105924 C65.917564,7.802533 78.826614,3.847534 92.539093,2.919902 C93.398750,2.861747 94.181480,1.666324 95.000000,1.000000 C185.354233,1.000000 275.708466,1.000000 366.229340,1.369035 C369.810394,2.490980 373.196289,3.424870 376.643799,3.967589 C399.939667,7.634933 419.600372,17.785627 435.287872,35.683735 C448.544464,50.808361 456.447601,68.161644 459.074951,88.034599 C459.171082,88.761856 460.334198,89.348053 461.000000,90.000000 M288.019958,157.156937 C288.019958,143.648590 288.019958,130.140259 288.019958,115.952911 C311.025330,129.364197 333.193359,142.287338 356.906250,156.111084 C356.906250,143.570236 356.755035,132.470093 356.996490,121.378487 C357.070862,117.962112 356.114349,116.024849 353.095367,114.287468 C332.353821,102.350899 311.769989,90.140015 291.011749,78.232964 C288.256409,76.652489 284.802246,76.290291 280.835144,75.116325 C280.835144,102.294128 280.835144,128.058014 280.211731,153.567810 C253.361679,139.829453 225.020279,135.383957 195.502441,141.459106 C125.750977,155.814880 81.743195,219.830780 92.880669,290.060913 C104.143585,361.082062 174.229279,409.848999 245.004730,395.803101 C312.618439,382.384674 356.840118,320.055511 349.129395,254.450302 C344.217560,212.658783 323.549255,180.677460 288.019958,157.156937 z" transform="matrix(0.9999999999999999, 0, 0, 0.9999999999999999, -3.552713678800501e-15, -3.552713678800501e-15)"/>
  <path fill="#FFCD00" opacity="1.000000" stroke="none" d=" M288.141602,158.108582 C323.549255,180.677460 344.217560,212.658783 349.129395,254.450302 C356.840118,320.055511 312.618439,382.384674 245.004730,395.803101 C174.229279,409.848999 104.143585,361.082062 92.880669,290.060913 C81.743195,219.830780 125.750977,155.814880 195.502441,141.459106 C225.020279,135.383957 253.361679,139.829453 280.584473,154.171844 C280.957214,170.367111 280.957214,185.958313 280.957214,202.015381 C239.413086,202.015381 198.539856,202.015381 156.225357,202.015381 C179.165833,224.159348 201.126175,245.357224 223.750412,267.195923 C201.626877,289.728333 179.847183,311.910553 158.487823,333.664673 C200.950638,333.664673 244.206223,333.664673 288.044800,333.664673 C288.044800,331.608490 288.044769,329.827148 288.044769,328.045776 C288.044769,303.387146 288.032562,278.728546 288.047852,254.069931 C288.067657,222.082809 288.109344,190.095703 288.141602,158.108582 z" transform="matrix(0.9999999999999999, 0, 0, 0.9999999999999999, -3.552713678800501e-15, -3.552713678800501e-15)"/>
  <path fill="#FF3130" opacity="1.000000" stroke="none" d=" M288.080780,157.632751 C288.109344,190.095703 288.067657,222.082809 288.047852,254.069931 C288.032562,278.728546 288.044769,303.387146 288.044769,328.045776 C288.044769,329.827148 288.044800,331.608490 288.044800,333.664673 C244.206223,333.664673 200.950638,333.664673 158.487823,333.664673 C179.847183,311.910553 201.626877,289.728333 223.750412,267.195923 C201.126175,245.357224 179.165833,224.159348 156.225357,202.015381 C198.539856,202.015381 239.413086,202.015381 280.957214,202.015381 C280.957214,185.958313 280.957214,170.367111 280.896179,154.298889 C280.835144,128.058014 280.835144,102.294128 280.835144,75.116325 C284.802246,76.290291 288.256409,76.652489 291.011749,78.232964 C311.769989,90.140015 332.353821,102.350899 353.095367,114.287468 C356.114349,116.024849 357.070862,117.962112 356.996490,121.378487 C356.755035,132.470093 356.906250,143.570236 356.906250,156.111084 C333.193359,142.287338 311.025330,129.364197 288.019958,115.952911 C288.019958,130.140259 288.019958,143.648590 288.080780,157.632751 z" transform="matrix(0.9999999999999999, 0, 0, 0.9999999999999999, -3.552713678800501e-15, -3.552713678800501e-15)"/>
</svg>